# xmcd
#
# Track frame offsets:
# 150
# 15515
# 31368
# 47681
# 60355
# 82012
# 95965
# 109104
# 122774
# 134696
# 153323
# 165899
# 179864
# 193332
# 218359
# 238011
# 261614
# 278758
# 293306
# 306035
# 322356
# 337831
#
# Disc length: 4721 seconds
#
#
# Revision: 0
# Processed by: cddbd v1.5.2PL0 Copyright (c) Steve Scherf et al.
# Submitted via: FreeRIP 2.945 
#
DISCID=41126f16
DTITLE=Various Artist - Westerbro LineDance - Beginner 1
DYEAR=2008
DGENRE=Country
TTITLE0=Shakin' Stevens - A love worth waiting for
TTITLE1=Billy Dean - Saturday night
TTITLE2=Fede Finn and Funny Boyz - Jeg er en glad lille cowboy
TTITLE3=Paul Brandt - Add 'hem all
TTITLE4=Garth Brooks - Ain't goin' down
TTITLE5=George Jones - Billy be bad
TTITLE6=Shakin' Stevens - You drive me crazy
TTITLE7=Brooks and Dunn - My next broken heart
TTITLE8=Dolly Parton - Baby I'm burning
TTITLE9=Alan Jackson - Chattahooche
TTITLE10=Nancy Hayes - Come dance with me
TTITLE11=Tanya Tucker - Trail of tears
TTITLE12=Garth Brooks - Calin baton rouge
TTITLE13=Chris Anderson and DJ - Last night (Club Mix)
TTITLE14=Dave Sheriff - Cowgirl twist
TTITLE15=The Mavericks - I should have been true
TTITLE16=Diamond dixie - Tell me about it
TTITLE17=Lee Roy Parnell - country down to my soul
TTITLE18=Unknown - Feeling kinda lonely
TTITLE19=Randy Travis - Forever and ever
TTITLE20=Billy Ray Cyrus - Ache Breaky Heart
TTITLE21=Five - Slam dunk
EXTD=
EXTT0=
EXTT1=
EXTT2=
EXTT3=
EXTT4=
EXTT5=
EXTT6=
EXTT7=
EXTT8=
EXTT9=
EXTT10=
EXTT11=
EXTT12=
EXTT13=
EXTT14=
EXTT15=
EXTT16=
EXTT17=
EXTT18=
EXTT19=
EXTT20=
EXTT21=
PLAYORDER=
